<svg width="15" height="16" viewBox="0 0 15 16" fill="none" xmlns="http://www.w3.org/2000/svg">
<path d="M13.525 10.7166L11.4084 10.475C10.9 10.4166 10.4 10.5916 10.0417 10.95L8.50837 12.4833C6.15003 11.2833 4.2167 9.3583 3.0167 6.99163L4.55837 5.44997C4.9167 5.09163 5.0917 4.59163 5.03337 4.0833L4.7917 1.9833C4.6917 1.14163 3.98337 0.508301 3.13337 0.508301H1.6917C0.750034 0.508301 -0.0332994 1.29163 0.0250339 2.2333C0.466701 9.34997 6.15837 15.0333 13.2667 15.475C14.2084 15.5333 14.9917 14.75 14.9917 13.8083V12.3666C15 11.525 14.3667 10.8166 13.525 10.7166Z" fill="#0D2E59"/>
</svg>
